<?xml version="1.0" standalone="no"?>
<!DOCTYPE svg PUBLIC "-//W3C//DTD SVG 20010904//EN"
 "http://www.w3.org/TR/2001/REC-SVG-20010904/DTD/svg10.dtd">
<svg version="1.0" xmlns="http://www.w3.org/2000/svg"
 width="6511.000000pt" height="6511.000000pt" viewBox="0 0 6511.000000 6511.000000"
 preserveAspectRatio="xMidYMid meet">

<g transform="translate(0.000000,6511.000000) scale(0.100000,-0.100000)"
fill="#000000" stroke="none">
<path d="M2 32558 l3 -32553 32548 -3 32547 -2 0 32555 0 32555 -32550 0
-32550 0 2 -32552z m30718 15824 c135 -6 337 -16 450 -22 4260 -218 7904
-1413 10700 -3509 1613 -1209 2940 -2735 3887 -4472 853 -1563 1417 -3300
1677 -5164 69 -496 112 -948 148 -1560 17 -297 18 -1621 0 -1915 -34 -589 -72
-996 -137 -1480 -176 -1305 -493 -2526 -972 -3730 -1000 -2517 -2634 -4640
-4823 -6267 -2243 -1667 -4991 -2761 -8180 -3257 -237 -37 -750 -107 -779
-105 -9 0 16 9 54 20 340 95 520 148 695 205 3136 1018 5722 3240 7194 6181
768 1536 1196 3164 1286 4893 15 292 12 994 -5 1290 -65 1103 -262 2140 -600
3155 -137 412 -217 624 -242 643 -9 6 -12 12 -6 12 6 0 9 9 6 20 -3 11 -10 20
-16 20 -6 0 -8 3 -4 6 7 7 -29 102 -46 122 -9 11 -13 11 -24 -4 -7 -10 -16
-15 -19 -11 -4 4 3 16 17 27 17 16 20 23 11 29 -7 4 -14 17 -15 29 0 12 -7 24
-15 27 -7 3 -11 13 -8 22 4 13 -2 22 -21 30 -15 7 -29 9 -32 5 -3 -4 -26 -14
-51 -22 -25 -8 -52 -22 -61 -32 -9 -10 -24 -18 -33 -18 -9 0 -16 -4 -16 -10 0
-5 -9 -10 -20 -10 -11 0 -20 -4 -20 -10 0 -5 -13 -10 -30 -10 -16 0 -30 -4
-30 -10 0 -5 -9 -10 -20 -10 -11 0 -20 -4 -20 -10 0 -5 -13 -10 -30 -10 -16 0
-30 -4 -30 -10 0 -5 -8 -10 -18 -10 -10 0 -24 -9 -32 -20 -8 -12 -26 -20 -42
-20 -15 0 -28 -4 -28 -10 0 -5 -9 -10 -20 -10 -11 0 -20 -4 -20 -10 0 -5 -9
-10 -20 -10 -11 0 -20 -4 -20 -10 0 -5 -13 -10 -28 -10 -16 0 -34 -8 -42 -20
-8 -12 -26 -20 -42 -20 -15 0 -28 -4 -28 -10 0 -5 -9 -10 -20 -10 -11 0 -20
-4 -20 -10 0 -5 -9 -10 -20 -10 -11 0 -20 -4 -20 -10 0 -5 -13 -10 -30 -10
-16 0 -30 -4 -30 -10 0 -5 -9 -10 -20 -10 -11 0 -20 -4 -20 -10 0 -5 -9 -10
-20 -10 -11 0 -20 -4 -20 -10 0 -5 -8 -10 -18 -10 -10 0 -24 -9 -32 -20 -10
-14 -26 -20 -50 -20 -24 0 -40 -6 -50 -20 -8 -11 -26 -20 -40 -20 -14 0 -32
-9 -40 -20 -9 -13 -26 -20 -47 -20 -17 0 -35 -5 -38 -10 -3 -6 -15 -10 -26
-10 -10 0 -19 -4 -19 -10 0 -5 -9 -10 -20 -10 -11 0 -20 -4 -20 -10 0 -5 -9
-10 -20 -10 -11 0 -20 -4 -20 -10 0 -5 -9 -10 -20 -10 -11 0 -20 -4 -20 -10 0
-5 -8 -10 -18 -10 -10 0 -24 -9 -32 -20 -8 -11 -22 -20 -32 -20 -10 0 -18 -4
-18 -10 0 -5 -13 -10 -30 -10 -16 0 -30 -4 -30 -10 0 -5 -9 -10 -20 -10 -11 0
-20 -4 -20 -10 0 -5 -9 -10 -20 -10 -11 0 -20 -4 -20 -10 0 -5 -9 -10 -20 -10
-11 0 -20 -4 -20 -10 0 -5 -13 -10 -30 -10 -16 0 -30 -4 -30 -10 0 -5 -13 -10
-30 -10 -16 0 -30 -4 -30 -10 0 -5 -13 -10 -28 -10 -16 0 -34 -8 -42 -20 -8
-11 -22 -20 -32 -20 -10 0 -18 -4 -18 -10 0 -5 -9 -10 -20 -10 -11 0 -20 -4
-20 -10 0 -5 -13 -10 -30 -10 -16 0 -30 -4 -30 -10 0 -5 -8 -10 -18 -10 -10 0
-24 -9 -32 -20 -8 -12 -26 -20 -42 -20 -15 0 -28 -4 -28 -10 0 -5 -9 -10 -20
-10 -11 0 -20 -4 -20 -10 0 -5 -9 -10 -20 -10 -19 0 -20 -7 -22 -112 l-2 -113
-6 115 c-6 110 -6 112 -10 40 l-3 -75 -6 60 -7 60 -4 -61 c-3 -34 -3 -75 0
-90 7 -35 1 -66 -12 -62 -6 2 -11 33 -13 68 -1 36 -7 193 -13 350 -35 891
-108 1454 -278 2135 -390 1560 -1225 2880 -2432 3843 -1233 984 -2837 1590
-4717 1782 -546 55 -457 53 -2732 57 -1162 2 -2113 7 -2113 12 0 4 114 42 253
84 1291 389 2551 604 3912 667 283 13 1076 13 1360 0 2690 -123 5238 -893
7520 -2270 1591 -961 3001 -2196 4161 -3645 729 -910 1291 -1785 1808 -2815
719 -1430 1212 -2944 1470 -4510 25 -151 49 -300 54 -330 24 -139 11 500 -18
915 -259 3685 -1924 7123 -4655 9610 -1280 1166 -2786 2101 -4410 2740 -2495
982 -5248 1242 -7885 745 -1189 -225 -2421 -624 -3467 -1125 l-153 -74 0
-8048 -1 -8048 -157 160 c-433 443 -1009 1085 -1493 1665 -2470 2965 -4374
6382 -5599 10050 -755 2260 -1262 4679 -1470 7020 -11 124 -25 275 -32 335 -9
82 -13 689 -15 2377 l-4 2268 1228 3 c3320 7 11750 0 11983 -11z m10260
-15122 c0 -5 -4 -10 -10 -10 -5 0 -10 5 -10 10 0 6 5 10 10 10 6 0 10 -4 10
-10z m-660 -320 c0 -5 -4 -10 -10 -10 -5 0 -10 5 -10 10 0 6 5 10 10 10 6 0
10 -4 10 -10z m-1643 -712 c-2 -29 -3 -6 -3 52 0 58 1 81 3 53 2 -29 2 -77 0
-105z m-41 25 c1 -79 -1 -98 -8 -73 -11 47 -7 180 5 180 1 0 3 -48 3 -107z
m-21073 -368 c24 -60 86 -204 137 -319 715 -1620 1704 -3123 2919 -4436 174
-187 654 -668 843 -843 643 -595 1355 -1154 2094 -1643 111 -73 209 -140 217
-148 8 -8 17 -12 21 -9 3 4 6 -1 6 -11 0 -9 3 -15 8 -13 4 3 13 -1 19 -9 8 -8
9 -15 3 -19 -6 -4 -8 -10 -5 -14 2 -5 -5 -19 -17 -32 -14 -16 -22 -20 -25 -11
-3 6 -12 12 -21 12 -15 -1 -15 -2 1 -14 17 -13 16 -18 -19 -82 -20 -38 -42
-76 -49 -84 -11 -12 -11 -17 1 -27 7 -7 20 -13 27 -13 8 0 20 -7 27 -15 9 -11
7 -19 -14 -39 -14 -15 -28 -22 -31 -16 -4 6 -11 8 -16 5 -5 -4 -9 5 -9 19 0
29 -6 32 -23 13 -11 -12 -18 -23 -49 -79 -7 -13 -15 -25 -19 -28 -4 -4 -16
-22 -64 -101 -46 -76 -48 -82 -30 -95 16 -12 14 -19 -26 -88 -24 -42 -50 -76
-56 -76 -7 0 -13 -12 -13 -26 0 -17 -6 -28 -20 -31 -14 -4 -20 -14 -20 -34 0
-16 -4 -29 -10 -29 -5 0 -10 -7 -10 -16 0 -9 -10 -25 -22 -35 l-21 -19 22 -19
22 -19 -51 -84 c-29 -46 -56 -84 -61 -86 -14 -5 -11 -60 4 -65 8 -4 9 -6 0 -6
-6 -1 -18 6 -27 14 -20 21 -35 19 -57 -7 -23 -26 -24 -34 -3 -46 18 -10 13
-42 -10 -64 -6 -7 -29 -42 -51 -78 -21 -36 -39 -66 -41 -68 -1 -2 -13 1 -26 8
-21 10 -21 10 -5 -4 18 -14 18 -16 -3 -58 -29 -58 -53 -100 -67 -116 -7 -7
-20 -26 -30 -42 -9 -17 -21 -30 -25 -30 -4 0 -8 -6 -8 -14 0 -22 -53 -105 -67
-106 -7 0 -13 5 -13 10 0 21 -19 9 -32 -20 -7 -16 -17 -30 -22 -30 -5 0 -1 -9
9 -20 10 -11 24 -20 30 -20 12 0 28 -50 16 -50 -3 0 -14 -17 -24 -38 -30 -61
-46 -79 -57 -63 -7 12 -15 8 -41 -20 -17 -19 -38 -49 -46 -68 -8 -19 -21 -40
-29 -48 -8 -8 -14 -21 -14 -29 0 -8 -5 -14 -10 -14 -6 0 -14 -10 -19 -22 -5
-13 -21 -40 -35 -61 -26 -39 -34 -63 -16 -52 6 3 10 1 10 -4 0 -6 -9 -11 -20
-11 -24 0 -26 -16 -3 -29 21 -11 13 -33 -54 -136 -25 -38 -67 -108 -94 -154
-42 -71 -47 -86 -34 -93 22 -13 19 -28 -20 -87 -19 -29 -35 -55 -35 -59 0 -3
-6 -13 -14 -21 -20 -22 -31 -71 -17 -71 6 0 11 -8 11 -17 -1 -27 -25 -53 -50
-53 -12 0 -31 -11 -42 -25 -16 -21 -23 -23 -34 -14 -17 14 -24 9 -51 -37 -10
-17 -26 -43 -37 -57 -17 -25 -17 -29 -3 -50 15 -23 10 -43 -26 -92 -4 -5 -26
-38 -48 -73 l-42 -63 22 -16 c21 -14 21 -16 7 -39 -9 -13 -16 -30 -16 -39 0
-8 -4 -15 -9 -15 -5 0 -23 -24 -39 -54 -30 -53 -56 -74 -67 -56 -11 17 -24 11
-31 -15 -3 -14 -11 -25 -16 -25 -6 0 -7 -11 -4 -25 5 -19 2 -25 -10 -25 -17 0
-54 -36 -54 -53 0 -5 -18 -38 -40 -73 -22 -35 -40 -66 -40 -69 0 -4 10 -5 23
-3 16 2 23 -3 25 -19 2 -13 8 -23 13 -23 18 0 9 -31 -17 -57 -20 -20 -28 -23
-34 -13 -7 11 -11 10 -24 -3 -9 -8 -16 -22 -16 -29 0 -8 -9 -20 -20 -28 -11
-8 -20 -20 -20 -28 0 -7 -8 -21 -17 -32 -10 -10 -29 -41 -43 -67 -14 -26 -39
-70 -57 -97 -31 -48 -32 -49 -12 -65 19 -16 19 -16 -6 -53 -14 -20 -25 -44
-25 -52 0 -8 -3 -16 -8 -18 -4 -1 -21 -25 -39 -52 -31 -48 -31 -50 -12 -65 19
-16 19 -17 -17 -76 -21 -33 -39 -62 -41 -65 -2 -2 -12 1 -22 7 -16 10 -23 7
-45 -20 -22 -26 -28 -29 -36 -17 -16 25 -40 -18 -38 -67 1 -34 5 -43 20 -43
10 0 18 -7 18 -16 0 -15 -77 -153 -91 -164 -4 -3 -9 -14 -11 -25 -2 -11 -10
-19 -16 -17 -7 1 -12 -5 -12 -13 0 -14 -15 -45 -33 -69 -26 -36 -97 -160 -97
-171 0 -8 -6 -18 -13 -22 -21 -13 -59 -82 -52 -93 4 -6 10 -8 15 -5 4 3 10 -4
13 -15 3 -10 2 -20 -2 -22 -9 -4 -54 -68 -70 -100 -8 -16 -18 -28 -23 -28 -4
0 -8 -7 -8 -16 0 -8 -7 -23 -16 -31 -13 -14 -17 -14 -24 -2 -7 10 -14 7 -34
-16 -14 -17 -26 -36 -26 -42 0 -7 -3 -13 -7 -13 -5 0 -16 -14 -25 -30 -16 -28
-16 -30 3 -44 20 -14 20 -14 0 -52 -12 -21 -21 -33 -21 -26 0 6 -6 12 -14 12
-8 0 -16 5 -18 11 -2 6 -14 -9 -26 -33 -12 -25 -31 -53 -42 -63 -24 -22 -25
-29 -4 -50 16 -15 15 -19 -5 -58 -12 -23 -46 -80 -76 -127 -30 -47 -64 -102
-75 -122 -11 -21 -28 -38 -36 -38 -10 0 -14 -6 -10 -15 3 -9 -20 -58 -55 -115
-33 -55 -63 -108 -66 -118 -3 -9 -14 -26 -23 -37 -28 -32 -220 -356 -220 -371
0 -7 -6 -17 -13 -21 -7 -4 -33 -42 -58 -83 -25 -41 -73 -121 -107 -176 -34
-56 -62 -106 -62 -112 0 -6 -4 -12 -8 -14 -16 -6 -54 -78 -41 -78 25 0 1 -11
-42 -19 -35 -6 -12 -9 121 -18 128 -7 -106 -10 -1027 -11 l-1193 -2 0 2388 c0
1313 -3 4754 -6 7647 -5 3606 -3 5257 4 5250 5 -5 30 -59 55 -120z m5237
-9325 c0 -5 9 -10 20 -10 11 0 20 -4 20 -10 0 -15 -29 -12 -46 4 -16 17 -18
26 -4 26 6 0 10 -4 10 -10z m-624 -1305 c-25 -19 -41 -19 -24 0 7 8 20 14 28
14 11 0 10 -3 -4 -14z m-83 -65 c-3 -11 -7 -20 -9 -20 -2 0 -4 9 -4 20 0 11 4
20 9 20 5 0 7 -9 4 -20z m-346 -672 c-3 -7 -5 -2 -5 12 0 14 2 19 5 13 2 -7 2
-19 0 -25z m-27 -37 c0 -6 -4 -13 -10 -16 -5 -3 -10 1 -10 9 0 9 5 16 10 16 6
0 10 -4 10 -9z"/>
<path d="M40820 33780 c0 -5 5 -10 10 -10 6 0 10 5 10 10 0 6 -4 10 -10 10 -5
0 -10 -4 -10 -10z"/>
<path d="M40861 33764 c0 -11 3 -14 6 -6 3 7 2 16 -1 19 -3 4 -6 -2 -5 -13z"/>
<path d="M38641 32804 c0 -11 3 -14 6 -6 3 7 2 16 -1 19 -3 4 -6 -2 -5 -13z"/>
<path d="M23325 23600 c-3 -5 -1 -10 4 -10 6 0 11 5 11 10 0 6 -2 10 -4 10 -3
0 -8 -4 -11 -10z"/>
<path d="M23277 23436 c-4 -10 -1 -13 9 -9 15 6 19 23 5 23 -5 0 -11 -7 -14
-14z"/>
<path d="M23245 23400 c3 -5 8 -10 11 -10 2 0 4 5 4 10 0 6 -5 10 -11 10 -5 0
-7 -4 -4 -10z"/>
<path d="M22700 22400 c0 -5 5 -10 10 -10 6 0 10 5 10 10 0 6 -4 10 -10 10 -5
0 -10 -4 -10 -10z"/>
<path d="M21720 20619 c0 -5 5 -7 10 -4 6 3 10 8 10 11 0 2 -4 4 -10 4 -5 0
-10 -5 -10 -11z"/>
<path d="M21577 20325 c3 -8 9 -12 14 -9 12 7 11 11 -5 17 -10 4 -13 1 -9 -8z"/>
<path d="M20725 18660 c-3 -5 -1 -10 4 -10 6 0 11 5 11 10 0 6 -2 10 -4 10 -3
0 -8 -4 -11 -10z"/>
<path d="M20480 18220 c0 -5 5 -10 11 -10 5 0 7 5 4 10 -3 6 -8 10 -11 10 -2
0 -4 -4 -4 -10z"/>
</g>
</svg>
